<svg xmlns="http://www.w3.org/2000/svg" xmlns:xlink="http://www.w3.org/1999/xlink" id="Ebene_1" width="771.141" height="772.65" x="0" y="0" enable-background="new 0 0 771.141 772.65" version="1.1" viewBox="0 0 771.141 772.65" xml:space="preserve"><switch><g><path fill="#1C3F4D" d="M360.215,212.391H51.506v194.886h542.989V212.391H360.215z M82.371,352.444 c0,4.361-3.537,7.899-7.899,7.899c-4.363,0-7.9-3.538-7.9-7.899l0,0c0-4.363,3.537-7.9,7.9-7.9 C78.834,344.544,82.371,348.081,82.371,352.444z M74.471,275.229c-4.363,0-7.9-3.539-7.9-7.901c0-4.363,3.537-7.901,7.9-7.901 c4.362,0,7.899,3.538,7.899,7.901c0.028,4.362-3.483,7.924-7.849,7.954c-0.018,0-0.034,0-0.053,0L74.471,275.229L74.471,275.229z M122.981,375.304c0.003,7.479-6.054,13.54-13.529,13.544c-7.476,0.002-13.539-6.055-13.542-13.528c0-0.007,0-0.011,0-0.016 V244.521c-0.004-7.476,6.054-13.54,13.529-13.543c7.477-0.003,13.54,6.055,13.542,13.53c0,0.004,0,0.008,0,0.013V375.304z M179.551,377.199c-13.643,0.027-24.726-11.007-24.755-24.649c-0.028-13.642,11.008-24.727,24.649-24.756 c13.643-0.029,24.729,11.008,24.756,24.65C204.23,366.087,193.193,377.172,179.551,377.199c-0.017,0-0.035,0-0.053,0H179.551z M179.551,292.083c-13.643,0-24.702-11.061-24.702-24.703c0-13.642,11.061-24.703,24.702-24.703 c13.644,0,24.703,11.062,24.703,24.703C204.253,281.022,193.193,292.083,179.551,292.083c-0.017,0-0.035,0-0.053,0H179.551z M275.94,377.199h-41.137V242.677h41.137V377.199z M347.678,377.199h-41.137V242.677h41.137V377.199L347.678,377.199z M419.415,377.199h-41.083V242.677h41.138L419.415,377.199z M491.155,377.199h-41.031V242.677h41.139L491.155,377.199z M550.198,375.304c-0.026,7.465-6.07,13.509-13.536,13.536l0,0c-7.465-0.028-13.508-6.071-13.534-13.536V244.521 c0.026-7.464,6.069-13.508,13.534-13.536l0,0c7.466,0.028,13.51,6.072,13.536,13.536V375.304z M579.432,352.444 c0,4.361-3.537,7.899-7.9,7.899s-7.898-3.538-7.898-7.899l0,0c0-4.363,3.536-7.9,7.898-7.9 C575.895,344.544,579.432,348.081,579.432,352.444z M571.531,275.229c-4.361,0-7.898-3.539-7.898-7.901 c0-4.363,3.537-7.901,7.898-7.901c4.363,0,7.9,3.538,7.9,7.901c0.029,4.362-3.484,7.924-7.849,7.954c-0.018,0-0.033,0-0.054,0 L571.531,275.229L571.531,275.229z"/><path fill="#FFF" stroke="#1C3F4D" stroke-miterlimit="10" stroke-width="11" d="M727.812,514.134l-74.898-63.72 c-6.045-6.039-14.158-9.554-22.697-9.832c42.45-49.893,36.421-124.752-13.474-167.203 c-49.89-42.453-124.751-36.421-167.203,13.471c-42.449,49.893-36.42,124.75,13.474,167.202c44.31,37.702,109.422,37.702,153.729,0 c0.28,8.541,3.797,16.655,9.833,22.699l63.855,74.766c9.191,11.412,25.898,13.21,37.312,4.019 c11.414-9.196,13.212-25.901,4.02-37.315c-1.192-1.479-2.538-2.825-4.02-4.017L727.812,514.134z M539.89,442.668 c-43.671,0-79.076-35.403-79.076-79.074c0-43.672,35.405-79.075,79.076-79.075c43.672,0,79.075,35.403,79.075,79.075 C618.966,407.265,583.562,442.668,539.89,442.668L539.89,442.668z"/><ellipse cx="667.092" cy="490.837" fill="#1C3F4D" rx="66.002" ry="20.334" transform="matrix(-0.7129 -0.7013 0.7013 -0.7129 798.4299 1308.5669)"/><ellipse cx="701.913" cy="524.569" fill="#1C3F4D" rx="40.4" ry="26.835" transform="matrix(-0.7341 -0.6791 0.6791 -0.7341 860.9512 1386.2891)"/><g><rect width="394.564" height="216" x="53.506" y="428.353" fill="none"/><path fill="#E30613" d="M120.639,463.862c3.752,4.824,5.628,11.658,5.628,20.502c0,7.504-1.273,14.853-3.819,22.043 c-2.546,7.191-6.633,13.178-12.261,17.955c-5.628,4.781-12.82,7.17-21.574,7.17c-4.468,0-8.844-0.717-13.132-2.145l-3.752,27.604 l-17.152,2.01l14.07-100.366h14.74l-0.134,8.309c6.432-6.879,13.534-10.318,21.306-10.318 C111.528,456.626,116.887,459.038,120.639,463.862z M90.289,471.901c-2.546,1.608-5.071,3.843-7.571,6.701l-5.226,38.189 c3.572,1.252,7.102,1.876,10.586,1.876c4.734,0,8.664-1.786,11.792-5.36c3.126-3.572,5.404-7.994,6.834-13.266 c1.428-5.27,2.144-10.586,2.144-15.945c0-9.736-3.484-14.607-10.452-14.607C95.535,469.489,92.835,470.294,90.289,471.901z"/><path fill="#E30613" d="M172.899,458.837c3.394-1.475,6.878-2.211,10.452-2.211c6.968,0,12.328,2.412,16.08,7.236 c3.752,4.824,5.628,11.658,5.628,20.502c0,7.594-1.273,14.964-3.819,22.109c-2.546,7.148-6.79,13.111-12.73,17.889 c-5.942,4.781-13.691,7.17-23.249,7.17c-4.556,0-8.978-0.426-13.266-1.273c-4.288-0.848-8.978-2.211-14.07-4.087l13.534-95.944 l17.018-1.875l-5.092,36.715C166.333,462.388,169.503,460.312,172.899,458.837z M169.147,471.901 c-2.502,1.608-5.048,3.843-7.638,6.701l-5.226,38.189c3.572,1.252,7.102,1.876,10.586,1.876c4.734,0,8.664-1.786,11.792-5.36 c3.126-3.572,5.404-7.994,6.834-13.266c1.428-5.27,2.144-10.586,2.144-15.945c0-9.736-3.484-14.607-10.452-14.607 C174.327,469.489,171.647,470.294,169.147,471.901z"/><path fill="#E30613" d="M281.973,463.46l-9.246,62.311c-1.698,11.791-5.427,20.277-11.189,25.459 c-5.762,5.18-13.735,7.772-23.919,7.772c-4.2,0-8.599-0.67-13.199-2.01c-4.602-1.341-8.777-3.128-12.529-5.36l6.03-11.926 c6.61,3.752,12.998,5.628,19.162,5.628c5.092,0,9.267-1.229,12.529-3.685c3.26-2.459,5.427-7.215,6.499-14.271l1.072-7.771 c-2.592,3.037-5.54,5.449-8.844,7.235c-3.306,1.788-6.79,2.681-10.452,2.681c-7.416,0-13.132-2.434-17.152-7.304 c-4.02-4.868-6.03-11.456-6.03-19.765c0-7.414,1.384-14.605,4.154-21.574c2.768-6.968,7.146-12.751,13.132-17.354 c5.984-4.6,13.534-6.9,22.646-6.9C264.105,456.626,273.218,458.903,281.973,463.46z M242.041,474.181 c-3.306,3.305-5.718,7.459-7.236,12.461c-1.52,5.004-2.278,10.185-2.278,15.545c0,5.004,0.892,8.643,2.68,10.92 c1.786,2.278,4.242,3.418,7.37,3.418c3.036,0,5.873-1.006,8.509-3.016c2.634-2.01,5.247-4.801,7.839-8.375l5.226-34.035 c-1.698-0.715-3.262-1.207-4.69-1.475c-1.43-0.268-3.082-0.402-4.958-0.402C249.499,469.222,245.345,470.876,242.041,474.181z"/><path fill="#E30613" d="M354.332,463.862c3.752,4.824,5.628,11.658,5.628,20.502c0,7.504-1.273,14.853-3.819,22.043 c-2.546,7.191-6.633,13.178-12.261,17.955c-5.628,4.781-12.82,7.17-21.574,7.17c-4.468,0-8.844-0.717-13.132-2.145l-3.752,27.604 l-17.152,2.01l14.07-100.366h14.74l-0.134,8.309c6.432-6.879,13.534-10.318,21.306-10.318 C345.22,456.626,350.58,459.038,354.332,463.862z M323.981,471.901c-2.546,1.608-5.071,3.843-7.571,6.701l-5.226,38.189 c3.572,1.252,7.102,1.876,10.586,1.876c4.734,0,8.664-1.786,11.792-5.36c3.126-3.572,5.404-7.994,6.834-13.266 c1.428-5.27,2.144-10.586,2.144-15.945c0-9.736-3.484-14.607-10.452-14.607C329.228,469.489,326.527,470.294,323.981,471.901z"/><path fill="#E30613" d="M433.123,463.862c3.752,4.824,5.629,11.658,5.629,20.502c0,7.504-1.273,14.853-3.82,22.043 c-2.545,7.191-6.633,13.178-12.26,17.955c-5.629,4.781-12.82,7.17-21.574,7.17c-4.469,0-8.844-0.717-13.133-2.145l-3.751,27.604 l-17.152,2.01l14.07-100.366h14.74l-0.134,8.309c6.433-6.879,13.534-10.318,21.306-10.318 C424.012,456.626,429.371,459.038,433.123,463.862z M402.773,471.901c-2.546,1.608-5.071,3.843-7.571,6.701l-5.227,38.189 c3.572,1.252,7.103,1.876,10.586,1.876c4.734,0,8.664-1.786,11.793-5.36c3.125-3.572,5.404-7.994,6.834-13.266 c1.428-5.27,2.144-10.586,2.144-15.945c0-9.736-3.483-14.607-10.452-14.607C408.02,469.489,405.319,470.294,402.773,471.901z"/></g></g></switch></svg>